HIERARCHY
ROOT Hips
{
	OFFSET 0.000000 87.230942 0.000000
	CHANNELS 6 Xposition Yposition Zposition Xrotation Yrotation Zrotation
	JOINT Pelvis
	{
		OFFSET 0.000000 0.000000 0.000000
		CHANNELS 3 Xrotation Yrotation Zrotation
		JOINT LeftUpLeg
		{
			OFFSET 12.017000 -9.376404 -2.439400
			CHANNELS 3 Xrotation Yrotation Zrotation
			JOINT LeftLeg
			{
				OFFSET -0.007312 -32.846973 2.110600
				CHANNELS 3 Xrotation Yrotation Zrotation
				JOINT LeftFoot
				{
					OFFSET 0.007312 -32.065170 -0.570400
					CHANNELS 3 Xrotation Yrotation Zrotation
					JOINT LeftToeBase
					{
						OFFSET 0.728300 -11.045900 13.180700
						CHANNELS 3 Xrotation Yrotation Zrotation
						End Site
						{
							OFFSET 0.000000 17.212589 0.000000
						}
					}
				}
				JOINT LeftPantLeg
				{
					OFFSET 0.002788 -16.709013 -3.143600
					CHANNELS 3 Xrotation Yrotation Zrotation
					End Site
					{
						OFFSET -0.605125 24.528742 0.000000
					}
				}
			}
			JOINT Left_Butt
			{
				OFFSET -6.630234 1.326584 -3.183700
				CHANNELS 3 Xrotation Yrotation Zrotation
				End Site
				{
					OFFSET -0.498041 20.188049 0.000000
				}
			}
		}
		JOINT RightUpLeg
		{
			OFFSET -11.717000 -9.376404 -2.439400
			CHANNELS 3 Xrotation Yrotation Zrotation
			JOINT RightLeg
			{
				OFFSET -0.003241 -32.846912 2.110600
				CHANNELS 3 Xrotation Yrotation Zrotation
				JOINT RightFoot
				{
					OFFSET 0.003241 -32.065136 -0.570500
					CHANNELS 3 Xrotation Yrotation Zrotation
					JOINT RightToeBase
					{
						OFFSET -0.728300 -11.045901 13.180700
						CHANNELS 3 Xrotation Yrotation Zrotation
						End Site
						{
							OFFSET 0.000000 17.212593 0.000000
						}
					}
				}
				JOINT RightPantLeg
				{
					OFFSET 0.008142 -16.708982 -3.143700
					CHANNELS 3 Xrotation Yrotation Zrotation
					End Site
					{
						OFFSET 0.605088 24.528715 0.000000
					}
				}
			}
			JOINT Right_Butt
			{
				OFFSET 6.630732 1.326584 -3.183700
				CHANNELS 3 Xrotation Yrotation Zrotation
				End Site
				{
					OFFSET 0.498015 20.188240 0.000000
				}
			}
		}
	}
	JOINT Spine
	{
		OFFSET -0.062400 7.848404 3.918300
		CHANNELS 3 Xrotation Yrotation Zrotation
		JOINT Spine1
		{
			OFFSET -0.072800 11.422302 0.713400
			CHANNELS 3 Xrotation Yrotation Zrotation
			JOINT Spine2
			{
				OFFSET -0.083200 13.054001 -1.931600
				CHANNELS 3 Xrotation Yrotation Zrotation
				JOINT Neck
				{
					OFFSET -0.092200 14.121796 -5.138800
					CHANNELS 3 Xrotation Yrotation Zrotation
					JOINT Head
					{
						OFFSET 0.000200 10.447403 -0.842000
						CHANNELS 3 Xrotation Yrotation Zrotation
						JOINT Visor
						{
							OFFSET 0.457100 25.671204 16.550400
							CHANNELS 3 Xrotation Yrotation Zrotation
							End Site
							{
								OFFSET 0.000000 26.061493 0.000000
							}
						}
						JOINT HairMidA
						{
							OFFSET 0.459400 31.585403 8.437400
							CHANNELS 3 Xrotation Yrotation Zrotation
							End Site
							{
								OFFSET 0.000000 26.061493 0.000000
							}
						}
						JOINT HairMidB
						{
							OFFSET 0.464000 33.309204 -8.389700
							CHANNELS 3 Xrotation Yrotation Zrotation
							End Site
							{
								OFFSET 0.000000 26.061493 0.000000
							}
						}
						JOINT HairMidC
						{
							OFFSET 0.466600 27.991196 -17.375099
							CHANNELS 3 Xrotation Yrotation Zrotation
							End Site
							{
								OFFSET 0.000000 26.061493 0.000000
							}
						}
						JOINT HairMidD
						{
							OFFSET 0.467700 17.888092 -21.169500
							CHANNELS 3 Xrotation Yrotation Zrotation
							End Site
							{
								OFFSET 0.000000 26.061493 0.000000
							}
						}
						JOINT HairMidE
						{
							OFFSET 5.325700 3.514603 -14.369699
							CHANNELS 3 Xrotation Yrotation Zrotation
							End Site
							{
								OFFSET 0.000000 26.061493 0.000000
							}
						}
						JOINT HairMidF
						{
							OFFSET -4.394100 3.514603 -14.372400
							CHANNELS 3 Xrotation Yrotation Zrotation
							End Site
							{
								OFFSET 0.000000 26.061493 0.000000
							}
						}
						JOINT HairLeftA
						{
							OFFSET 15.319900 25.746506 2.623300
							CHANNELS 3 Xrotation Yrotation Zrotation
							End Site
							{
								OFFSET 0.000000 26.061493 0.000000
							}
						}
						JOINT HairLeftB
						{
							OFFSET 12.619500 29.289398 -8.731499
							CHANNELS 3 Xrotation Yrotation Zrotation
							End Site
							{
								OFFSET 0.000000 26.061493 0.000000
							}
						}
						JOINT HairLeftC
						{
							OFFSET 15.714800 15.959900 2.909800
							CHANNELS 3 Xrotation Yrotation Zrotation
							End Site
							{
								OFFSET 0.000000 26.061493 0.000000
							}
						}
						JOINT HairLeftD
						{
							OFFSET 16.101700 18.437408 -7.553200
							CHANNELS 3 Xrotation Yrotation Zrotation
							End Site
							{
								OFFSET 0.000000 26.061493 0.000000
							}
						}
						JOINT HairLeftE
						{
							OFFSET 9.731900 17.915009 -18.316799
							CHANNELS 3 Xrotation Yrotation Zrotation
							End Site
							{
								OFFSET 0.000000 26.061493 0.000000
							}
						}
						JOINT HairLeftF
						{
							OFFSET 11.204300 4.953598 -9.668100
							CHANNELS 3 Xrotation Yrotation Zrotation
							End Site
							{
								OFFSET 0.000000 26.061493 0.000000
							}
						}
						JOINT HairRightA
						{
							OFFSET -14.397900 25.746307 2.615100
							CHANNELS 3 Xrotation Yrotation Zrotation
							End Site
							{
								OFFSET 0.000000 26.061493 0.000000
							}
						}
						JOINT HairRightB
						{
							OFFSET -11.691200 29.289200 -8.738199
							CHANNELS 3 Xrotation Yrotation Zrotation
							End Site
							{
								OFFSET 0.000000 26.061493 0.000000
							}
						}
						JOINT HairRightC
						{
							OFFSET -14.792900 15.959702 2.901400
							CHANNELS 3 Xrotation Yrotation Zrotation
							End Site
							{
								OFFSET 0.000000 26.061493 0.000000
							}
						}
						JOINT HairRightD
						{
							OFFSET -15.174000 18.437195 -7.561900
							CHANNELS 3 Xrotation Yrotation Zrotation
							End Site
							{
								OFFSET 0.000000 26.061493 0.000000
							}
						}
						JOINT HairRightE
						{
							OFFSET -8.798200 17.914902 -18.322001
							CHANNELS 3 Xrotation Yrotation Zrotation
							End Site
							{
								OFFSET 0.000000 26.061493 0.000000
							}
						}
						JOINT HairRightF
						{
							OFFSET -10.275200 4.953506 -9.674099
							CHANNELS 3 Xrotation Yrotation Zrotation
							End Site
							{
								OFFSET 0.000000 26.061493 0.000000
							}
						}
					}
				}
				JOINT LeftShoulder
				{
					OFFSET 5.133500 7.341202 -1.867600
					CHANNELS 3 Xrotation Yrotation Zrotation
					JOINT LeftArm
					{
						OFFSET 8.072663 0.936867 -2.176600
						CHANNELS 3 Xrotation Yrotation Zrotation
						JOINT LeftForeArm
						{
							OFFSET 31.271999 0.000000 0.000000
							CHANNELS 3 Xrotation Yrotation Zrotation
							JOINT LeftHand
							{
								OFFSET 31.771030 0.000000 0.000000
								CHANNELS 3 Xrotation Yrotation Zrotation
								JOINT LeftHandThumb1
								{
									OFFSET 2.886520 -2.557846 4.416640
									CHANNELS 3 Xrotation Yrotation Zrotation
									JOINT LeftHandThumb2
									{
										OFFSET 2.371025 -1.368912 1.368911
										CHANNELS 3 Xrotation Yrotation Zrotation
										JOINT LeftHandThumb3
										{
											OFFSET 2.243378 -1.295212 1.295213
											CHANNELS 3 Xrotation Yrotation Zrotation
											End Site
											{
												OFFSET -0.332611 2.876945 0.020015
											}
										}
									}
								}
								JOINT LeftHandIndex1
								{
									OFFSET 8.568985 -0.641945 3.119977
									CHANNELS 3 Xrotation Yrotation Zrotation
									JOINT LeftHandIndex2
									{
										OFFSET 3.348503 0.000000 0.000000
										CHANNELS 3 Xrotation Yrotation Zrotation
										JOINT LeftHandIndex3
										{
											OFFSET 3.314552 0.000000 0.000000
											CHANNELS 3 Xrotation Yrotation Zrotation
											End Site
											{
												OFFSET -1.032898 3.075485 0.678796
											}
										}
									}
								}
								JOINT LeftHandMiddle1
								{
									OFFSET 8.124603 0.000000 0.000000
									CHANNELS 3 Xrotation Yrotation Zrotation
									JOINT LeftHandMiddle2
									{
										OFFSET 4.166275 0.000000 0.000000
										CHANNELS 3 Xrotation Yrotation Zrotation
										JOINT LeftHandMiddle3
										{
											OFFSET 3.018135 0.000000 0.000000
											CHANNELS 3 Xrotation Yrotation Zrotation
											End Site
											{
												OFFSET -1.032700 2.767982 0.617226
											}
										}
									}
								}
								JOINT LeftHandRing1
								{
									OFFSET 8.571686 -0.031357 -2.884048
									CHANNELS 3 Xrotation Yrotation Zrotation
									JOINT LeftHandRing2
									{
										OFFSET 3.671181 0.000000 0.000000
										CHANNELS 3 Xrotation Yrotation Zrotation
										JOINT LeftHandRing3
										{
											OFFSET 2.728851 0.000000 0.000000
											CHANNELS 3 Xrotation Yrotation Zrotation
											End Site
											{
												OFFSET -0.815796 2.539223 0.577389
											}
										}
									}
								}
								JOINT LeftHandPinky1
								{
									OFFSET 7.854515 -0.675232 -5.213020
									CHANNELS 3 Xrotation Yrotation Zrotation
									JOINT LeftHandPinky2
									{
										OFFSET 3.068596 0.000000 0.000000
										CHANNELS 3 Xrotation Yrotation Zrotation
										JOINT LeftHandPinky3
										{
											OFFSET 2.396042 0.000000 0.000000
											CHANNELS 3 Xrotation Yrotation Zrotation
											End Site
											{
												OFFSET -0.524597 2.267998 0.567429
											}
										}
									}
								}
							}
							JOINT LeftSleeve
							{
								OFFSET 19.684509 -0.200119 0.476146
								CHANNELS 3 Xrotation Yrotation Zrotation
								End Site
								{
									OFFSET -0.031017 25.731133 -0.002868
								}
							}
						}
					}
				}
				JOINT RightShoulder
				{
					OFFSET -4.395900 7.341202 -1.870200
					CHANNELS 3 Xrotation Yrotation Zrotation
					JOINT RightArm
					{
						OFFSET -8.071453 0.936867 -2.181100
						CHANNELS 3 Xrotation Yrotation Zrotation
						JOINT RightForeArm
						{
							OFFSET -31.272011 0.000000 0.000000
							CHANNELS 3 Xrotation Yrotation Zrotation
							JOINT RightHand
							{
								OFFSET -31.771019 0.000000 0.000000
								CHANNELS 3 Xrotation Yrotation Zrotation
								JOINT RightHandThumb1
								{
									OFFSET -2.886520 -2.557808 4.416626
									CHANNELS 3 Xrotation Yrotation Zrotation
									JOINT RightHandThumb2
									{
										OFFSET -2.371056 -1.368927 1.368928
										CHANNELS 3 Xrotation Yrotation Zrotation
										JOINT RightHandThumb3
										{
											OFFSET -2.243362 -1.295204 1.295206
											CHANNELS 3 Xrotation Yrotation Zrotation
											End Site
											{
												OFFSET 0.332642 2.876938 0.020047
											}
										}
									}
								}
								JOINT RightHandIndex1
								{
									OFFSET -8.568993 -0.641953 3.120017
									CHANNELS 3 Xrotation Yrotation Zrotation
									JOINT RightHandIndex2
									{
										OFFSET -3.348518 0.000000 0.000000
										CHANNELS 3 Xrotation Yrotation Zrotation
										JOINT RightHandIndex3
										{
											OFFSET -3.314552 0.000000 0.000000
											CHANNELS 3 Xrotation Yrotation Zrotation
											End Site
											{
												OFFSET 1.032898 3.075478 0.678804
											}
										}
									}
								}
								JOINT RightHandMiddle1
								{
									OFFSET -8.124588 0.000000 0.000000
									CHANNELS 3 Xrotation Yrotation Zrotation
									JOINT RightHandMiddle2
									{
										OFFSET -4.166275 0.000000 0.000000
										CHANNELS 3 Xrotation Yrotation Zrotation
										JOINT RightHandMiddle3
										{
											OFFSET -3.018097 0.000000 0.000000
											CHANNELS 3 Xrotation Yrotation Zrotation
											End Site
											{
												OFFSET 1.032700 2.767937 0.617197
											}
										}
									}
								}
								JOINT RightHandRing1
								{
									OFFSET -8.571747 -0.031349 -2.884061
									CHANNELS 3 Xrotation Yrotation Zrotation
									JOINT RightHandRing2
									{
										OFFSET -3.671204 0.000000 0.000000
										CHANNELS 3 Xrotation Yrotation Zrotation
										JOINT RightHandRing3
										{
											OFFSET -2.728874 0.000000 0.000000
											CHANNELS 3 Xrotation Yrotation Zrotation
											End Site
											{
												OFFSET 0.815804 2.539261 0.577413
											}
										}
									}
								}
								JOINT RightHandPinky1
								{
									OFFSET -7.854561 -0.675247 -5.212970
									CHANNELS 3 Xrotation Yrotation Zrotation
									JOINT RightHandPinky2
									{
										OFFSET -3.068550 0.000000 0.000000
										CHANNELS 3 Xrotation Yrotation Zrotation
										JOINT RightHandPinky3
										{
											OFFSET -2.395981 0.000000 0.000000
											CHANNELS 3 Xrotation Yrotation Zrotation
											End Site
											{
												OFFSET 0.524605 2.267952 0.567413
											}
										}
									}
								}
							}
							JOINT RightSleeve
							{
								OFFSET -19.684753 -0.200165 0.476065
								CHANNELS 3 Xrotation Yrotation Zrotation
								End Site
								{
									OFFSET 0.031342 25.731255 -0.002917
								}
							}
						}
					}
				}
				JOINT Hood
				{
					OFFSET 0.369700 14.447800 -5.317800
					CHANNELS 3 Xrotation Yrotation Zrotation
					JOINT Hood1
					{
						OFFSET 0.001700 -5.553802 -5.895100
						CHANNELS 3 Xrotation Yrotation Zrotation
						JOINT Hood2
						{
							OFFSET -0.000200 -8.380501 0.763600
							CHANNELS 3 Xrotation Yrotation Zrotation
							End Site
							{
								OFFSET 0.000000 8.415215 0.000000
							}
						}
					}
				}
				JOINT Left_Breast
				{
					OFFSET 5.682500 3.120102 3.188800
					CHANNELS 3 Xrotation Yrotation Zrotation
					End Site
					{
						OFFSET 0.000000 10.528564 0.000000
					}
				}
				JOINT Right_Breast
				{
					OFFSET -4.947600 3.120102 3.185900
					CHANNELS 3 Xrotation Yrotation Zrotation
					End Site
					{
						OFFSET 0.000000 10.528564 0.000000
					}
				}
				JOINT Whistle
				{
					OFFSET 0.368200 11.471298 0.095400
					CHANNELS 3 Xrotation Yrotation Zrotation
					JOINT Whistle1
					{
						OFFSET -0.002000 -6.349899 7.479800
						CHANNELS 3 Xrotation Yrotation Zrotation
						JOINT Whistle2
						{
							OFFSET -0.001300 -8.217598 4.717600
							CHANNELS 3 Xrotation Yrotation Zrotation
							End Site
							{
								OFFSET 0.000000 9.475479 0.000000
							}
						}
					}
				}
			}
		}
		JOINT Belly
		{
			OFFSET 0.212400 1.593002 3.163700
			CHANNELS 3 Xrotation Yrotation Zrotation
			End Site
			{
				OFFSET 0.000000 7.496635 0.000000
			}
		}
	}
	JOINT FitGrandmaFacialAnim_Joint
	{
		OFFSET 1.150000 -86.211197 -1.220100
		CHANNELS 3 Xrotation Yrotation Zrotation
		End Site
		{
			OFFSET 0.000000 31.666618 0.000000
		}
	}
}
MOTION
Frames: 4
Frame Time: 0.016667
-1.911432 81.809944 0.893031 -10.808009 -54.528556 -7.045019 -0.000000 0.000001 -0.000000 -19.383518 13.717586 15.740222 30.452552 14.105156 0.152289 -1.976579 0.645451 -11.065913 0.000000 -0.000000 0.000000 -0.000000 -0.000002 0.000001 0.000002 0.000003 0.000002 -16.511876 -20.084805 -21.570875 39.238498 -3.164097 -3.329923 -18.034413 0.723896 12.828036 0.000000 0.000001 -0.000000 0.000000 0.000001 0.000002 0.000002 -0.000000 0.000001 5.267755 0.453780 0.681278 4.893951 1.120463 0.299611 8.444752 1.036550 0.033108 2.537417 5.572975 -0.185905 2.372535 37.187190 -7.338936 0.000000 0.000000 -0.000001 0.000000 0.000000 -0.000001 0.000000 0.000000 -0.000001 0.000000 0.000000 -0.000001 0.000000 0.000000 -0.000001 0.000000 0.000000 -0.000001 0.000000 0.000000 -0.000001 0.000000 0.000000 -0.000001 0.000000 0.000000 -0.000001 0.000000 0.000000 -0.000001 0.000000 0.000000 -0.000001 0.000000 0.000000 -0.000001 0.000000 0.000000 -0.000001 0.000000 0.000000 -0.000001 0.000000 0.000000 -0.000001 0.000000 0.000000 -0.000001 0.000000 0.000000 -0.000001 0.000000 0.000000 -0.000001 0.000000 0.000000 -0.000001 9.150573 -24.592612 -2.246829 -26.053171 8.217177 -60.618810 -91.270172 13.114615 -86.117136 -27.757937 -7.625867 -6.300469 0.699136 9.503392 -2.418116 5.975196 12.647541 1.348332 -0.000001 -0.000000 -0.000000 9.479719 -1.289773 -20.785558 0.709479 2.796393 -28.467088 0.000001 0.000001 -0.000001 10.058169 -1.800591 -20.644708 1.774253 4.200458 -45.782075 -0.000001 -0.000002 -0.000000 1.254225 -0.073704 -17.945769 3.754113 5.463662 -68.965294 0.000003 -0.000000 0.000000 -7.938252 1.609081 -6.495673 2.210550 4.583622 -51.475164 -0.000002 -0.000000 0.000002 0.000000 0.000001 -0.000000 10.411186 20.330613 -1.369223 3.446557 33.597021 47.887860 68.289782 116.117423 -81.856225 -10.139700 21.396992 14.282917 13.942488 -4.273684 -5.300344 7.113149 -20.767458 -2.619507 0.000001 0.000001 -0.000001 0.357771 -5.832701 5.175847 0.094356 -0.933682 11.539908 -0.000001 -0.000002 0.000001 3.764087 -12.080457 1.143786 5.714276 -4.535844 103.133568 0.000000 -0.000000 -0.000002 -12.155607 -12.623908 9.228350 6.566871 -4.248466 114.232353 -0.000001 -0.000002 -0.000001 -17.635748 -10.496877 3.325422 4.993620 -4.645021 94.147935 -0.000001 0.000003 0.000002 0.000000 -0.000000 -0.000000 0.000001 -0.000003 0.000001 0.000001 -0.000003 0.000001 0.000001 -0.000003 0.000001 0.000001 -0.000003 0.000001 0.000001 -0.000003 0.000001 0.000001 -0.000003 0.000001 0.000001 0.000002 -0.000000 0.000001 0.000002 -0.000000 0.000000 -0.000002 -0.000000 -0.000000 0.000001 -0.000000 
-1.872518 81.749626 1.422944 -10.371658 -53.105342 -6.614972 -0.000000 -0.000002 -0.000000 -20.097002 13.593410 15.465271 31.426226 12.866986 -0.145588 -2.692804 0.617298 -10.324847 -0.000000 -0.000002 -0.000000 0.000000 0.000000 0.000001 -0.000001 0.000002 0.000002 -16.216087 -18.437300 -21.826337 40.752744 -4.959117 -1.863083 -18.675074 0.926069 11.123231 0.000000 0.000001 0.000000 0.000001 -0.000000 0.000002 -0.000000 0.000001 -0.000000 5.212840 0.367238 0.816049 4.881398 0.959823 0.315644 8.443272 1.126766 0.051350 2.560040 5.635929 -0.196397 2.510868 38.008097 -7.338062 0.000000 -0.000000 -0.000000 0.000000 -0.000000 -0.000000 0.000000 -0.000000 -0.000000 0.000000 -0.000000 -0.000000 0.000000 -0.000000 -0.000000 0.000000 -0.000000 -0.000000 0.000000 -0.000000 -0.000000 0.000000 -0.000000 -0.000000 0.000000 -0.000000 -0.000000 0.000000 -0.000000 -0.000000 0.000000 -0.000000 -0.000000 0.000000 -0.000000 -0.000000 0.000000 -0.000000 -0.000000 0.000000 -0.000000 -0.000000 0.000000 -0.000000 -0.000000 0.000000 -0.000000 -0.000000 0.000000 -0.000000 -0.000000 0.000000 -0.000000 -0.000000 0.000000 -0.000000 -0.000000 8.936022 -24.743229 -2.968058 -26.604867 8.959854 -60.009803 -91.306044 12.800160 -85.897620 -27.851659 -7.038014 -5.777690 0.699135 9.503396 -2.418115 5.975196 12.647544 1.348331 -0.000001 0.000001 -0.000000 9.479722 -1.289765 -20.785558 0.709484 2.796383 -28.467088 0.000002 -0.000004 0.000002 10.058168 -1.800589 -20.644710 1.774254 4.200455 -45.782075 -0.000001 -0.000003 -0.000002 1.254227 -0.073702 -17.945772 3.754114 5.463660 -68.965294 0.000003 0.000001 0.000001 -7.938254 1.609071 -6.495675 2.210550 4.583620 -51.475161 0.000003 -0.000001 -0.000001 0.000001 -0.000004 0.000000 10.571308 20.013223 -2.157004 3.272273 35.427529 47.123989 70.645965 116.398936 -84.504303 -10.445490 22.183746 13.476863 13.942489 -4.273688 -5.300344 7.113149 -20.767451 -2.619509 0.000001 -0.000000 0.000001 0.357770 -5.832702 5.175849 0.094356 -0.933684 11.539910 0.000000 0.000001 -0.000000 3.764088 -12.080451 1.143787 5.714276 -4.535844 103.133568 0.000001 0.000001 -0.000003 -12.155606 -12.623905 9.228347 6.566873 -4.248468 114.232353 -0.000001 -0.000001 -0.000001 -17.635748 -10.496881 3.325421 4.993617 -4.645023 94.147935 -0.000002 -0.000002 -0.000000 0.000000 0.000001 -0.000000 -0.000000 -0.000003 0.000001 -0.000000 -0.000003 0.000001 -0.000000 -0.000003 0.000001 -0.000000 -0.000003 0.000001 -0.000000 -0.000003 0.000001 -0.000000 -0.000003 0.000001 -0.000000 0.000001 0.000000 -0.000000 0.000001 0.000000 0.000000 -0.000001 -0.000000 -0.000000 -0.000002 -0.000000 
-1.790800 81.625465 1.968387 -9.962505 -51.680077 -6.216566 -0.000000 0.000000 -0.000000 -20.969430 13.421463 15.237008 32.740508 11.653714 -0.525522 -3.564665 0.558526 -9.529588 0.000000 0.000000 -0.000000 0.000001 0.000002 0.000001 -0.000001 -0.000003 -0.000000 -17.213837 -15.984936 -22.313075 44.169351 -6.474239 -1.153024 -17.126844 0.844389 10.848191 0.000000 0.000000 0.000000 -0.000002 -0.000000 -0.000002 0.000002 -0.000000 0.000000 5.202078 0.347745 0.863985 4.875919 0.893823 0.313339 8.471697 1.741697 0.006404 2.611687 5.795507 -0.175233 2.871614 40.218510 -7.339837 0.000000 -0.000000 -0.000000 0.000000 -0.000000 -0.000000 0.000000 -0.000000 -0.000000 0.000000 -0.000000 -0.000000 0.000000 -0.000000 -0.000000 0.000000 -0.000000 -0.000000 0.000000 -0.000000 -0.000000 0.000000 -0.000000 -0.000000 0.000000 -0.000000 -0.000000 0.000000 -0.000000 -0.000000 0.000000 -0.000000 -0.000000 0.000000 -0.000000 -0.000000 0.000000 -0.000000 -0.000000 0.000000 -0.000000 -0.000000 0.000000 -0.000000 -0.000000 0.000000 -0.000000 -0.000000 0.000000 -0.000000 -0.000000 0.000000 -0.000000 -0.000000 0.000000 -0.000000 -0.000000 8.936019 -24.743310 -2.968062 -27.022573 9.098575 -59.788737 -91.418134 12.788623 -85.389720 -28.033251 -6.726845 -5.796747 0.699134 9.503393 -2.418117 5.975197 12.647542 1.348331 -0.000002 -0.000001 -0.000001 9.479719 -1.289770 -20.785557 0.709484 2.796384 -28.467086 0.000005 -0.000005 0.000003 10.058167 -1.800588 -20.644713 1.774252 4.200456 -45.782075 -0.000000 0.000002 -0.000006 1.254225 -0.073703 -17.945774 3.754115 5.463666 -68.965294 0.000004 0.000000 -0.000005 -7.938254 1.609080 -6.495675 2.210550 4.583625 -51.475164 0.000000 -0.000001 0.000002 0.000000 0.000004 -0.000000 10.565203 19.946546 -2.142258 2.607373 35.855153 47.333566 71.764675 116.208401 -85.770968 -10.570379 21.998943 13.615168 13.942491 -4.273685 -5.300344 7.113149 -20.767451 -2.619508 -0.000001 0.000001 -0.000000 0.357769 -5.832702 5.175848 0.094357 -0.933681 11.539912 0.000000 0.000001 0.000002 3.764088 -12.080454 1.143786 5.714278 -4.535842 103.133568 -0.000001 0.000001 -0.000003 -12.155607 -12.623907 9.228347 6.566872 -4.248468 114.232353 -0.000001 -0.000000 0.000001 -17.635750 -10.496878 3.325422 4.993614 -4.645020 94.147935 -0.000003 0.000001 0.000002 0.000000 0.000000 -0.000000 0.000001 0.000000 -0.000000 0.000001 0.000000 -0.000000 0.000001 0.000000 -0.000000 0.000001 0.000000 -0.000000 0.000001 0.000000 -0.000000 0.000001 0.000000 -0.000000 0.000001 -0.000002 -0.000000 0.000001 -0.000002 -0.000000 -0.000000 -0.000002 -0.000000 -0.000000 0.000000 -0.000000 
-1.688553 81.470047 2.544287 -9.577743 -50.252396 -5.846700 -0.000000 -0.000002 -0.000000 -21.882179 13.237404 15.034001 34.191251 10.446103 -0.983307 -4.511672 0.471866 -8.663729 0.000000 -0.000002 -0.000000 -0.000000 -0.000001 0.000001 -0.000001 0.000001 -0.000002 -18.239979 -13.202594 -22.412152 47.613710 -7.827899 -0.730250 -15.084126 0.573724 10.814519 0.000000 0.000002 -0.000000 0.000000 -0.000000 0.000003 0.000001 0.000002 -0.000001 5.200598 0.334889 0.879235 4.870107 0.829822 0.304666 8.520207 2.710881 -0.072869 2.689524 6.030642 -0.142780 3.412323 43.413943 -7.365483 -0.000000 -0.000000 -0.000000 -0.000000 -0.000000 -0.000000 -0.000000 -0.000000 -0.000000 -0.000000 -0.000000 -0.000000 -0.000000 -0.000000 -0.000000 -0.000000 -0.000000 -0.000000 -0.000000 -0.000000 -0.000000 -0.000000 -0.000000 -0.000000 -0.000000 -0.000000 -0.000000 -0.000000 -0.000000 -0.000000 -0.000000 -0.000000 -0.000000 -0.000000 -0.000000 -0.000000 -0.000000 -0.000000 -0.000000 -0.000000 -0.000000 -0.000000 -0.000000 -0.000000 -0.000000 -0.000000 -0.000000 -0.000000 -0.000000 -0.000000 -0.000000 -0.000000 -0.000000 -0.000000 -0.000000 -0.000000 -0.000000 8.936031 -24.743281 -2.968071 -27.403885 9.241068 -59.623064 -91.512821 12.777824 -84.960518 -28.164041 -6.454038 -5.810561 0.699136 9.503392 -2.418115 5.975195 12.647544 1.348333 -0.000000 0.000001 -0.000001 9.479719 -1.289773 -20.785558 0.709480 2.796391 -28.467086 0.000002 -0.000004 -0.000000 10.058170 -1.800590 -20.644710 1.774258 4.200451 -45.782075 -0.000000 -0.000005 0.000003 1.254228 -0.073702 -17.945771 3.754113 5.463666 -68.965294 -0.000001 0.000002 -0.000001 -7.938255 1.609076 -6.495676 2.210551 4.583612 -51.475164 0.000001 -0.000001 -0.000001 0.000000 -0.000002 0.000000 10.560320 19.868225 -2.125416 2.003529 36.236093 47.517141 72.763583 116.049763 -86.902478 -10.678804 21.824893 13.770433 13.942489 -4.273686 -5.300343 7.113149 -20.767450 -2.619509 -0.000001 0.000001 -0.000000 0.357771 -5.832703 5.175847 0.094358 -0.933685 11.539912 -0.000001 -0.000001 0.000001 3.764085 -12.080454 1.143785 5.714275 -4.535842 103.133568 -0.000000 0.000001 -0.000003 -12.155608 -12.623907 9.228345 6.566871 -4.248465 114.232353 0.000000 -0.000002 -0.000001 -17.635750 -10.496879 3.325422 4.993613 -4.645021 94.147935 -0.000002 -0.000001 -0.000000 0.000000 0.000000 0.000000 0.000000 0.000002 -0.000000 0.000000 0.000002 -0.000000 0.000000 0.000002 -0.000000 0.000000 0.000002 -0.000000 0.000000 0.000002 -0.000000 0.000000 0.000002 0.000000 0.000000 -0.000001 0.000000 0.000000 -0.000001 0.000000 -0.000000 0.000001 -0.000000 -0.000000 -0.000002 -0.000000 
